HIERARCHY
ROOT Hips
{
  OFFSET 3.13124 94.3669 -3.18751
  CHANNELS  6 Xposition Yposition Zposition Zrotation Xrotation Yrotation
  JOINT LeftUpLeg
  {
    OFFSET 8.64259 1.95398 -2.38835
    CHANNELS 3 Zrotation Xrotation Yrotation
    JOINT LeftLeg
    {
      OFFSET 43.7702 0 0
      CHANNELS 3 Zrotation Xrotation Yrotation
      JOINT LeftFoot
      {
        OFFSET 40.6238 0 0
        CHANNELS 3 Zrotation Xrotation Yrotation
        JOINT LeftToeBase
        {
          OFFSET 12.7242 0 0
          CHANNELS 3 Zrotation Xrotation Yrotation
          End Site
          {
            OFFSET 0 0 0
          }
        }
      }
    }
  }
  JOINT RightUpLeg
  {
    OFFSET -8.2249 1.95398 -2.59336
    CHANNELS 3 Zrotation Xrotation Yrotation
    JOINT RightLeg
    {
      OFFSET 43.5653 0 0
      CHANNELS 3 Zrotation Xrotation Yrotation
      JOINT RightFoot
      {
        OFFSET 40.6238 0 0
        CHANNELS 3 Zrotation Xrotation Yrotation
        JOINT RightToeBase
        {
          OFFSET 12.7242 0 0
          CHANNELS 3 Zrotation Xrotation Yrotation
          End Site
          {
            OFFSET 0 0 0
          }
        }
      }
    }
  }
  JOINT Spine
  {
    OFFSET 0.165834 0.87714 6.61349
    CHANNELS 3 Zrotation Xrotation Yrotation
    JOINT Spine1
    {
      OFFSET 7.38962 1.71661e-005 0
      CHANNELS 3 Zrotation Xrotation Yrotation
      JOINT Spine2
      {
        OFFSET 11.9445 1.14441e-005 0
        CHANNELS 3 Zrotation Xrotation Yrotation
        JOINT Spine3
        {
          OFFSET 14.7254 4.19617e-005 0
          CHANNELS 3 Zrotation Xrotation Yrotation
          JOINT Spine4
          {
            OFFSET 10.9679 0 0
            CHANNELS 3 Zrotation Xrotation Yrotation
            JOINT RightShoulder
            {
              OFFSET 2.46616 -1.6653 3.69651
              CHANNELS 3 Zrotation Xrotation Yrotation
              JOINT RightArm
              {
                OFFSET 13.0012 0 0
                CHANNELS 3 Zrotation Xrotation Yrotation
                JOINT RightForeArm
                {
                  OFFSET 28.7848 1.52588e-005 0
                  CHANNELS 3 Zrotation Xrotation Yrotation
                  JOINT RightHand
                  {
                    OFFSET 26.5688 1.52588e-005 0
                    CHANNELS 3 Zrotation Xrotation Yrotation
                    End Site
                    {
                      OFFSET 0 0 0
                    }
                  }
                }
              }
            }
            JOINT LeftShoulder
            {
              OFFSET 2.38034 -1.29275 -3.75231
              CHANNELS 3 Zrotation Xrotation Yrotation
              JOINT LeftArm
              {
                OFFSET 16.3182 6.10352e-005 0
                CHANNELS 3 Zrotation Xrotation Yrotation
                JOINT LeftForeArm
                {
                  OFFSET 27.0901 0 0
                  CHANNELS 3 Zrotation Xrotation Yrotation
                  JOINT LeftHand
                  {
                    OFFSET 24.5451 1.52588e-005 0
                    CHANNELS 3 Zrotation Xrotation Yrotation
                    End Site
                    {
                      OFFSET 0 0 0
                    }
                  }
                }
              }
            }
            JOINT Neck
            {
              OFFSET 5.0226 -0.0266342 0
              CHANNELS 3 Zrotation Xrotation Yrotation
              JOINT Head
              {
                OFFSET 6.69363 2.86102e-005 0
                CHANNELS 3 Zrotation Xrotation Yrotation
                End Site
                {
                  OFFSET 0 0 0
                }
              }
            }
          }
        }
      }
    }
  }
}
MOTION
Frames:	8
Frame Time:	0.0333333
-1.79237 97.9547 -25.4068 -14.1744 -89.9985 -14.1287 -171.301 2.90977 93.8675 -8.51789 8.62198 1.19728 63.1611 1.51441 0.780315 28.7808 6.08519e-006 4.16276e-006 179.579 1.80968 89.4194 -7.41957 -0.28852 -0.0232288 62.6426 -1.25055 -0.632067 28.7808 1.37887e-005 2.62426e-005 0.00355076 6.34067 -90.0448 14.1935 -8.31434e-006 0.00704334 2.52251 8.15333e-006 0.00651909 -20.0126 0.00890945 7.0055e-006 -1.59028e-015 0.00891558 4.85314e-019 100.739 -18.7275 -85.7028 -0.652988 37.536 -14.2274 -0.68077 0.106366 -4.01577 -5.37983 -0.320016 -0.0162406 -78.7782 -21.4801 94.7726 10.4102 -44.7787 -11.9648 4.98607 45.5392 -2.17012 -1.71596 -0.0876 -2.52147 1.76493 -0.000946672 -0.00511082 -7.42172 -0.000529882 0.00383187 
-1.79177 97.9785 -25.4029 -42.4499 -89.9619 -42.3439 -171.281 2.8349 93.9282 -8.2911 8.53781 1.14994 63.0548 1.56153 0.810322 28.7808 6.08519e-006 4.16276e-006 179.593 0.946407 89.4927 -5.56903 -0.279387 -0.0232288 61.7323 -1.271 -0.629006 28.7808 1.37887e-005 2.62426e-005 0.00700825 6.34024 -90.0877 14.1934 -2.5389e-005 0.00704334 2.52246 -1.01117e-005 0.00651909 -20.0127 0.00890945 -1.27762e-005 -4.55962e-005 0.00891558 -1.89794e-005 100.764 -18.6889 -85.7534 -0.674998 37.5437 -14.1638 -0.680464 0.106366 -4.01879 -5.37983 -0.320016 -0.0162406 -78.6568 -21.4314 94.9532 10.2117 -44.7564 -12.1905 5.08268 45.6466 -2.17531 -2.14133 -0.0875739 -2.88369 1.94774 -0.00111239 -0.0750283 -7.5948 -0.00984331 0.0552746 
-1.78929 97.9744 -25.4028 -21.4932 -89.9098 -21.3984 -171.291 2.92467 93.9029 -8.35822 8.57015 1.15744 63.0181 1.66824 0.870017 28.7808 6.08519e-006 4.16276e-006 179.588 1.24283 89.4699 -6.05026 -0.337984 -0.0235411 61.9236 -1.29061 -0.644045 28.7808 1.37887e-005 2.62426e-005 0.00602882 6.33979 -90.0726 14.1944 0.000347303 0.00704334 2.52342 0.00036691 0.00651909 -20.0118 0.00890945 0.000377086 0.000904166 0.00891558 0.000382449 100.85 -18.6244 -85.6852 -0.620171 37.5323 -14.2604 -0.658546 0.106368 -3.99928 -5.37983 -0.320016 -0.0162406 -78.5728 -21.3717 95.0124 10.1289 -44.7185 -12.2381 5.07618 45.6348 -2.1883 -2.15025 -0.0875821 -2.85417 2.15584 -0.00650297 0.0197227 -7.75158 -0.0292846 -0.0310619 
-1.7921 97.9849 -25.3929 -73.6271 -89.9252 -73.5216 -171.269 2.86914 93.928 -8.40183 8.54259 1.14395 63.0428 1.67433 0.872857 28.7808 6.08519e-006 4.16276e-006 179.589 0.891344 89.4652 -5.48394 -0.428957 -0.0282716 61.714 -1.2461 -0.615188 28.7808 1.37887e-005 2.62426e-005 0.00904135 6.32733 -90.061 14.2193 0.00989081 0.00704334 2.54833 0.0102396 0.00651909 -19.9868 0.00890945 0.0106394 0.0258207 0.00891558 0.0106375 100.747 -18.6674 -85.7031 -0.650197 37.5537 -14.235 -0.661904 0.106367 -4.00635 -5.37983 -0.320016 -0.0162406 -78.6779 -21.2525 94.9761 10.1096 -44.698 -12.1791 5.07726 45.7561 -2.16349 -2.16447 -0.0876806 -2.91063 1.98001 -0.0511768 -0.0712961 -7.66254 -0.042758 0.0302532 
-1.78994 97.9708 -25.3829 -76.9057 -89.9116 -76.7829 -171.258 2.8381 93.9518 -8.36039 8.51461 1.14922 63.1419 1.51478 0.78269 28.7808 6.08519e-006 4.16276e-006 179.595 0.841954 89.4785 -5.40402 -0.448848 -0.031148 61.7494 -1.25631 -0.622898 28.7808 1.37887e-005 2.62426e-005 0.0102393 6.32345 -90.0634 14.227 0.0117107 0.00704035 2.55604 0.0120135 0.00652525 -19.9791 0.0090029 0.0102964 0.033538 0.00900885 0.0102912 100.744 -18.6157 -85.7135 -0.640188 37.5373 -14.204 -0.627856 0.10637 -3.98667 -5.37983 -0.320016 -0.0162406 -78.6361 -21.2111 95.0699 10.0315 -44.6591 -12.2835 5.07336 45.6638 -2.1808 -2.30265 -0.087792 -2.97441 2.04678 -0.0684768 -0.0610161 -7.68946 -0.0599918 0.00127305 
-1.78248 97.9649 -25.374 -49.3191 -89.863 -49.1891 -171.271 2.87347 93.9443 -8.30037 8.43508 1.13654 63.1054 1.53653 0.795198 28.7808 6.08519e-006 4.16276e-006 179.599 0.908013 89.4878 -5.38883 -0.445793 -0.0339633 61.72 -1.29843 -0.64782 28.7808 1.37887e-005 2.62426e-005 0.0129948 6.3118 -90.0633 14.2503 0.0148198 0.00743362 2.57936 0.0152519 0.00705131 -19.9558 0.0110233 0.0140543 0.0568542 0.0110265 0.0140455 100.763 -18.5497 -85.6576 -0.587895 37.4673 -14.2016 -0.561082 0.106371 -3.97859 -5.37983 -0.320016 -0.0162406 -78.6009 -21.1179 95.1567 9.8881 -44.6253 -12.4159 5.203 45.9457 -2.25638 -2.69 -0.0879092 -3.10918 2.17166 -0.0805915 -0.0563048 -7.81421 -0.0696763 -0.0324971 
-1.77714 97.968 -25.3473 -71.4522 -89.8679 -71.3133 -171.254 2.75796 93.9655 -8.21112 8.48013 1.15201 63.1143 1.48882 0.768048 28.7808 6.08519e-006 4.16276e-006 179.593 0.835288 89.4808 -5.3779 -0.507674 -0.0362869 61.7515 -1.28205 -0.638434 28.7808 1.37887e-005 2.62426e-005 0.0118941 6.31132 -90.0638 14.2513 0.0161196 0.00806157 2.58031 0.0166478 0.0078048 -19.9548 0.0117104 0.0164969 0.0578169 0.0117105 0.0164857 100.764 -18.5494 -85.6647 -0.601619 37.4258 -14.1731 -0.50481 0.106374 -3.95511 -5.37983 -0.320016 -0.0162406 -78.5821 -21.1015 95.1888 9.91208 -44.6481 -12.4224 5.09934 45.728 -2.19909 -2.30183 -0.0880604 -2.94951 2.20238 -0.0864411 -0.049833 -7.80657 -0.0752106 -0.0696508 
-1.77664 97.9845 -25.3185 -97.6714 -89.8501 -97.5359 -171.25 2.68171 93.975 -8.24058 8.43803 1.15707 63.1584 1.42669 0.731682 28.7808 6.08519e-006 4.16276e-006 179.59 0.771536 89.4695 -5.4224 -0.554411 -0.037687 61.7885 -1.24687 -0.617281 28.7808 1.37887e-005 2.62426e-005 0.00947547 6.30653 -90.0595 14.2608 0.0115595 0.0080577 2.58989 0.0119772 0.00794599 -19.9453 0.00814327 0.0126386 0.067391 0.00813928 0.0126283 100.72 -18.4758 -85.7574 -0.627217 37.3817 -14.0488 -0.447176 0.106373 -3.96354 -5.37983 -0.320016 -0.0162406 -78.612 -21.1471 95.1434 10.074 -44.6681 -12.2608 5.13536 45.7428 -2.24566 -2.44741 -0.0882075 -2.94031 2.04808 -0.0806519 0.0939223 -7.62682 -0.0848043 -0.192738 
